<svg version="1.1" viewBox="0.0 0.0 960.0 720.0" fill="none" stroke="none" stroke-linecap="square" stroke-miterlimit="10" xmlns:xlink="http://www.w3.org/1999/xlink" xmlns="http://www.w3.org/2000/svg"><clipPath id="p.0"><path d="m0 0l960.0 0l0 720.0l-960.0 0l0 -720.0z" clip-rule="nonzero"/></clipPath><g clip-path="url(#p.0)"><path fill="#000000" fill-opacity="0.0" d="m0 0l960.0 0l0 720.0l-960.0 0z" fill-rule="evenodd"/><defs><linearGradient id="p.1" gradientUnits="userSpaceOnUse" gradientTransform="matrix(24.559771972132435 0.0 0.0 24.559771972132435 0.0 0.0)" spreadMethod="pad" x1="19.66123010555229" y1="2.37820415955618" x2="19.66114160487594" y2="26.937976131529158"><stop offset="0.0" stop-color="#4d4d4d"/><stop offset="1.0" stop-color="#000000"/></linearGradient></defs><path fill="url(#p.1)" d="m840.95404 661.5906l0 0c-197.76141 0 -358.0787 -135.02673 -358.0787 -301.59058c0 -166.56386 160.31729 -301.59055 358.0787 -301.59055l0 0c-112.707886 71.19586 -179.03937 182.93076 -179.03937 301.59055c0 118.65979 66.33148 230.39465 179.03937 301.59058z" fill-rule="evenodd"/><path stroke="#000000" stroke-width="1.0" stroke-linejoin="round" stroke-linecap="butt" d="m840.95404 661.5906l0 0c-197.76141 0 -358.0787 -135.02673 -358.0787 -301.59058c0 -166.56386 160.31729 -301.59055 358.0787 -301.59055l0 0c-112.707886 71.19586 -179.03937 182.93076 -179.03937 301.59055c0 118.65979 66.33148 230.39465 179.03937 301.59058z" fill-rule="evenodd"/><defs><linearGradient id="p.2" gradientUnits="userSpaceOnUse" gradientTransform="matrix(23.25149198470286 0.0 0.0 23.25149198470286 0.0 0.0)" spreadMethod="pad" x1="5.119926576619273" y1="3.857089307549332" x2="5.1198423561609205" y2="27.108581292099664"><stop offset="0.0" stop-color="#1076d2"/><stop offset="1.0" stop-color="#093053"/></linearGradient></defs><path fill="url(#p.2)" d="m119.04593 360.0l0 0c0 -149.29083 121.02414 -270.31497 270.31497 -270.31497l0 0c71.691986 0 140.44763 28.47953 191.14154 79.17342c50.69391 50.693893 79.1734 119.449554 79.1734 191.14154l0 0c0 149.29083 -121.02411 270.31494 -270.31494 270.31494l0 0c-149.29083 0 -270.31497 -121.02411 -270.31497 -270.31494zm135.15749 0l0 0c0 74.64542 60.51207 135.15747 135.15749 135.15747c74.64542 0 135.15747 -60.512054 135.15747 -135.15747c0 -74.64542 -60.512054 -135.15749 -135.15747 -135.15749l0 0c-74.64542 0 -135.15749 60.51207 -135.15749 135.15749z" fill-rule="evenodd"/><path stroke="#000000" stroke-width="1.0" stroke-linejoin="round" stroke-linecap="butt" d="m119.04593 360.0l0 0c0 -149.29083 121.02414 -270.31497 270.31497 -270.31497l0 0c71.691986 0 140.44763 28.47953 191.14154 79.17342c50.69391 50.693893 79.1734 119.449554 79.1734 191.14154l0 0c0 149.29083 -121.02411 270.31494 -270.31494 270.31494l0 0c-149.29083 0 -270.31497 -121.02411 -270.31497 -270.31494zm135.15749 0l0 0c0 74.64542 60.51207 135.15747 135.15749 135.15747c74.64542 0 135.15747 -60.512054 135.15747 -135.15747c0 -74.64542 -60.512054 -135.15749 -135.15747 -135.15749l0 0c-74.64542 0 -135.15749 60.51207 -135.15749 135.15749z" fill-rule="evenodd"/></g></svg>